Coordinates
version=1
nRows=10
nColumns=23
inDegrees=yes

Units are S.I. units (second, meters, Newtons, ...)
If the header above contains a line with 'inDegrees', this indicates whether rotational values are in degrees (yes) or radians (no).

endheader
time	pelvis_tilt	pelvis_list	pelvis_rotation	pelvis_tx	pelvis_ty	pelvis_tz	hip_flexion_r	hip_adduction_r	hip_rotation_r	knee_angle_r	knee_angle_r_beta	ankle_angle_r	subtalar_angle_r	mtp_angle_r	hip_flexion_l	hip_adduction_l	hip_rotation_l	knee_angle_l	knee_angle_l_beta	ankle_angle_l	subtalar_angle_l	mtp_angle_l
      7.50000000	     -8.27095473	      8.63490649	      2.58406110	      2.25635548	      0.94700620	      1.00978629	     -2.59867745	    -10.18751203	     -7.35823476	     85.24523532	      1.48781003	    -18.70670315	    -14.49348574	      0.00000000	     32.01943744	      9.26491747	    -14.24429937	     19.28288695	      0.33654987	      0.54675034	      6.31467072	      0.00000000
      7.50666667	     -8.43397172	      9.00665755	      3.34564364	      2.25438415	      0.94232928	      1.00898110	     -0.33793697	    -10.91199034	     -7.64376076	     89.41115071	      1.56051897	    -17.89818429	    -16.36076588	      0.00000000	     32.05166103	     10.07308608	    -13.54041570	     21.90750746	      0.38235814	      1.29548967	      4.50040912	      0.00000000
      7.51333333	     -7.99950468	      9.45488039	      4.08559485	      2.25239451	      0.93838665	      1.00827936	      1.30474870	    -11.71859261	     -7.91510791	     93.30932357	      1.62855492	    -17.04916467	    -17.99371866	      0.00000000	     31.38045656	     10.95439251	    -12.76620877	     24.73038529	      0.43162665	      2.62551497	      2.80677670	      0.00000000
      7.52000000	     -8.95534175	      9.62973260	      5.00050478	      2.24939029	      0.93266784	      1.00733176	      4.82460136	    -12.37053741	     -7.90443916	     97.44639887	      1.70076050	    -16.11043016	    -19.34243045	      0.00000000	     32.25672295	     11.81045377	    -11.29566693	     27.74425196	      0.48422855	      4.19179765	      0.44463899	      0.00000000
      7.52666667	     -9.29760236	      9.89217283	      5.81172628	      2.24635950	      0.92796877	      1.00651476	      7.75446555	    -13.11642993	     -7.76697210	    101.25147508	      1.76717161	    -15.06608199	    -20.35316674	      0.00000000	     32.27658582	     12.73770060	     -9.90552727	     30.56653968	      0.53348676	      6.00636304	     -1.69026938	      0.00000000
      7.53333333	     -9.64464499	     10.13703430	      6.57204119	      2.24321254	      0.92359570	      1.00579708	     10.85185031	    -13.82972003	     -7.38056131	    104.82458136	      1.82953408	    -14.11269029	    -20.97728720	      0.00000000	     32.10744006	     13.65863727	     -8.44554823	     33.15842490	      0.57872369	      8.13917462	     -3.50149228	      0.00000000
      7.54000000	     -9.86987405	     10.15834554	      7.39857958	      2.24001744	      0.91985723	      1.00503952	     13.91819882	    -14.30335693	     -7.00364199	    108.03949396	      1.88564489	    -13.13183016	    -21.30996965	      0.00000000	     31.61688222	     14.33544971	     -6.96888207	     35.55827793	      0.62060903	     10.54266528	     -4.54150127	      0.00000000
      7.54666667	    -10.14773095	     10.18838905	      7.98249148	      2.23676411	      0.91654403	      1.00458522	     17.28124431	    -14.68952452	     -6.19129355	    110.98006068	      1.93696746	    -12.17672984	    -21.29976434	      0.00000000	     30.92785522	     14.84917662	     -5.71744622	     37.50238873	      0.65454016	     12.94557171	     -5.29002542	      0.00000000
      7.55333333	    -10.28340401	     10.06321058	      8.49553195	      2.23376071	      0.91401683	      1.00418622	     20.57614078	    -14.85832676	     -5.32133022	    113.48143335	      1.98062465	    -11.27001657	    -20.97226486	      0.00000000	     29.82497788	     15.08348602	     -4.51843448	     39.05101136	      0.68156872	     15.40741598	     -5.44702263	      0.00000000
      7.56000000	     -9.84850562	      9.77485486	      8.90873318	      2.23138966	      0.91300317	      1.00379916	     23.19118542	    -14.74771214	     -4.57876809	    115.37101878	      2.01360414	    -10.51593912	    -20.66013663	      0.00000000	     27.76266781	     15.00592932	     -3.19999908	     40.05300411	      0.69905680	     17.77270176	     -5.46587701	      0.00000000
